/* XPM */
static char * door_open_xpm[] = {
"32 32 702 2",
"  	c #2A2825",
". 	c #2B2825",
"+ 	c #2B2925",
"@ 	c #2C2925",
"# 	c #2D2A24",
"$ 	c #4E3F36",
"% 	c #918073",
"& 	c #D2CCC0",
"* 	c #D3CDC1",
"= 	c #D0C9BB",
"- 	c #BEB5A6",
"; 	c #D2CBBD",
"> 	c #D8D3C8",
", 	c #C6BCAF",
"' 	c #CFC7B8",
") 	c #D0C9BA",
"! 	c #D4CEC2",
"~ 	c #D1CABC",
"{ 	c #D5CFC4",
"] 	c #D5D0C5",
"^ 	c #4A4C48",
"/ 	c #7B8078",
"( 	c #7A7F77",
"_ 	c #7C8078",
": 	c #7E827A",
"< 	c #919289",
"[ 	c #CFC8BB",
"} 	c #CABEB0",
"| 	c #DAD5CB",
"1 	c #DEDBD4",
"2 	c #E0DED8",
"3 	c #DCD8D0",
"4 	c #CFC8BA",
"5 	c #D0C9BC",
"6 	c #CFC8B9",
"7 	c #D1CABD",
"8 	c #D2CBBE",
"9 	c #282724",
"0 	c #292724",
"a 	c #636861",
"b 	c #7B7E75",
"c 	c #7D8076",
"d 	c #7C8076",
"e 	c #6A6E66",
"f 	c #676B64",
"g 	c #CAC4B6",
"h 	c #D7D2C7",
"i 	c #DDD9D2",
"j 	c #E1DFDA",
"k 	c #E3E1DD",
"l 	c #DDD9D1",
"m 	c #CEC5BA",
"n 	c #C9BEAE",
"o 	c #C9BDAE",
"p 	c #272624",
"q 	c #292825",
"r 	c #474944",
"s 	c #787C72",
"t 	c #797C71",
"u 	c #6B6E67",
"v 	c #7C7D75",
"w 	c #D7CDC2",
"x 	c #E0DDD8",
"y 	c #E2E0DB",
"z 	c #E5E4E1",
"A 	c #E1DED9",
"B 	c #DBD6CD",
"C 	c #D0C8BA",
"D 	c #3C3D39",
"E 	c #2D2C29",
"F 	c #292824",
"G 	c #343531",
"H 	c #636761",
"I 	c #545953",
"J 	c #72766C",
"K 	c #72766D",
"L 	c #7A7D74",
"M 	c #777A71",
"N 	c #61665F",
"O 	c #8D8F86",
"P 	c #A7A398",
"Q 	c #C6BAAA",
"R 	c #C1B5A7",
"S 	c #BDBBB2",
"T 	c #E0DDD7",
"U 	c #DAD6CC",
"V 	c #DBD7CE",
"W 	c #D3CDC0",
"X 	c #50534E",
"Y 	c #7A8076",
"Z 	c #61655D",
"` 	c #5B6059",
" .	c #797F76",
"..	c #72786F",
"+.	c #616660",
"@.	c #6E726A",
"#.	c #787C73",
"$.	c #7A7E75",
"%.	c #7A7D73",
"&.	c #6A6F69",
"*.	c #72776F",
"=.	c #757B72",
"-.	c #797C74",
";.	c #93958B",
">.	c #84887D",
",.	c #B7B6B0",
"'.	c #E2E0DC",
").	c #D4CEC4",
"!.	c #D1CBBE",
"~.	c #D1CBBD",
"{.	c #42443F",
"].	c #777D73",
"^.	c #767B71",
"/.	c #777C73",
"(.	c #676D65",
"_.	c #787E75",
":.	c #777C72",
"<.	c #676B63",
"[.	c #5F625B",
"}.	c #70726A",
"|.	c #6F736A",
"1.	c #676A62",
"2.	c #6A6F68",
"3.	c #757A70",
"4.	c #72776D",
"5.	c #878B7F",
"6.	c #85887D",
"7.	c #7A7E74",
"8.	c #C1BEB8",
"9.	c #CBC2B5",
"0.	c #2E2A24",
"a.	c #2D2A25",
"b.	c #2F2D29",
"c.	c #60635C",
"d.	c #787D73",
"e.	c #74786E",
"f.	c #5D5E56",
"g.	c #7E5E4D",
"h.	c #9D6235",
"i.	c #89502F",
"j.	c #754426",
"k.	c #62381F",
"l.	c #57321B",
"m.	c #442918",
"n.	c #4C4942",
"o.	c #5D5F58",
"p.	c #81857A",
"q.	c #818378",
"r.	c #7F8379",
"s.	c #84877E",
"t.	c #D0CCC5",
"u.	c #C9C0B4",
"v.	c #D3CCC1",
"w.	c #2C2A25",
"x.	c #312E2A",
"y.	c #6E736C",
"z.	c #666B63",
"A.	c #74786F",
"B.	c #5F5E56",
"C.	c #945835",
"D.	c #B36C3E",
"E.	c #C88446",
"F.	c #B57140",
"G.	c #9D5F35",
"H.	c #7B4A29",
"I.	c #653C20",
"J.	c #53311A",
"K.	c #3C2312",
"L.	c #352C26",
"M.	c #5D6059",
"N.	c #747870",
"O.	c #6A6D66",
"P.	c #C5C1B8",
"Q.	c #DCD9D1",
"R.	c #D9D3C9",
"S.	c #2E2A25",
"T.	c #797C72",
"U.	c #6F736B",
"V.	c #57524B",
"W.	c #895530",
"X.	c #B87040",
"Y.	c #C57B46",
"Z.	c #DA934F",
"`.	c #B87441",
" +	c #AD6C3C",
".+	c #A06236",
"++	c #6E4324",
"@+	c #5B371D",
"#+	c #4A2C17",
"$+	c #271609",
"%+	c #0E0E0D",
"&+	c #444744",
"*+	c #7D8178",
"=+	c #80857B",
"-+	c #86867D",
";+	c #D2CCBF",
">+	c #2F2B24",
",+	c #2F2B23",
"'+	c #3C3C37",
")+	c #666961",
"!+	c #6C6F67",
"~+	c #915634",
"{+	c #B2703C",
"]+	c #CC804A",
"^+	c #D6894C",
"/+	c #DF9652",
"(+	c #BA7643",
"_+	c #B3713F",
":+	c #B2703F",
"<+	c #84542C",
"[+	c #5C371C",
"}+	c #502F19",
"|+	c #2B180A",
"1+	c #000000",
"2+	c #2A2928",
"3+	c #72746B",
"4+	c #7D8177",
"5+	c #676B62",
"6+	c #C2C0BA",
"7+	c #D4CEC3",
"8+	c #D4CFC4",
"9+	c #302B23",
"0+	c #63655D",
"a+	c #6E736A",
"b+	c #765847",
"c+	c #B26A3E",
"d+	c #C57D46",
"e+	c #D2874B",
"f+	c #DC8F50",
"g+	c #DC964F",
"h+	c #BA7543",
"i+	c #B57341",
"j+	c #8C5C31",
"k+	c #5D371B",
"l+	c #523118",
"m+	c #281609",
"n+	c #494B46",
"o+	c #686D65",
"p+	c #70746B",
"q+	c #9C9D97",
"r+	c #D9D4CA",
"s+	c #C4BBAC",
"t+	c #D3CDC2",
"u+	c #302B22",
"v+	c #2F2A23",
"w+	c #6A6D62",
"x+	c #73766C",
"y+	c #6C7067",
"z+	c #905531",
"A+	c #BD7343",
"B+	c #D08C49",
"C+	c #D1864A",
"D+	c #DA8C4F",
"E+	c #D9924D",
"F+	c #BC7644",
"G+	c #BF7A46",
"H+	c #B87543",
"I+	c #8A5C2F",
"J+	c #5F391B",
"K+	c #533119",
"L+	c #252423",
"M+	c #898B83",
"N+	c #DDDAD4",
"O+	c #CBC4B9",
"P+	c #312D25",
"Q+	c #3C3A33",
"R+	c #656861",
"S+	c #6B6E66",
"T+	c #57564E",
"U+	c #A15E37",
"V+	c #C57946",
"W+	c #D6904D",
"X+	c #D5874E",
"Y+	c #D5894C",
"Z+	c #C67E46",
"`+	c #C07B45",
" @	c #B97642",
".@	c #8D6130",
"+@	c #613C1B",
"@@	c #2E1A0B",
"#@	c #4F524C",
"$@	c #686C63",
"%@	c #D5D3CD",
"&@	c #CDC7BC",
"*@	c #CFC7B9",
"=@	c #312B23",
"-@	c #312B22",
";@	c #43433E",
">@	c #767B72",
",@	c #7D8179",
"'@	c #80857C",
")@	c #625C52",
"!@	c #A25F37",
"~@	c #D0844B",
"{@	c #D8924E",
"]@	c #D2864B",
"^@	c #D9904D",
"/@	c #C88045",
"(@	c #C77E48",
"_@	c #BC7744",
":@	c #8F6131",
"<@	c #633C1B",
"[@	c #533218",
"}@	c #241308",
"|@	c #4F534E",
"1@	c #858980",
"2@	c #7B7F75",
"3@	c #71736E",
"4@	c #CEC7BA",
"5@	c #D2CCC1",
"6@	c #453A31",
"7@	c #453B32",
"8@	c #463A32",
"9@	c #54524B",
"0@	c #7C8178",
"a@	c #76796E",
"b@	c #60574C",
"c@	c #AC663C",
"d@	c #D98C4E",
"e@	c #D58F4C",
"f@	c #D4854E",
"g@	c #D0844A",
"h@	c #DA924E",
"i@	c #C67E44",
"j@	c #C67D47",
"k@	c #8C5D31",
"l@	c #663E1E",
"m@	c #543218",
"n@	c #5F635E",
"o@	c #74776E",
"p@	c #7E8177",
"q@	c #7B7E73",
"r@	c #5C5C54",
"s@	c #7D6857",
"t@	c #866F5B",
"u@	c #89725D",
"v@	c #B5A8A1",
"w@	c #AD9E93",
"x@	c #AF9B8A",
"y@	c #8B7E73",
"z@	c #73776E",
"A@	c #5E5449",
"B@	c #B16D3B",
"C@	c #D78B4C",
"D@	c #D28E4A",
"E@	c #D2834D",
"F@	c #CD8148",
"G@	c #D9934E",
"H@	c #C27746",
"I@	c #C27A44",
"J@	c #B87440",
"K@	c #8B5D30",
"L@	c #693F22",
"M@	c #50301C",
"N@	c #271508",
"O@	c #61655F",
"P@	c #767A70",
"Q@	c #777B72",
"R@	c #4F524D",
"S@	c #352A25",
"T@	c #372B26",
"U@	c #44362C",
"V@	c #DBD7D0",
"W@	c #B6AB9F",
"X@	c #CEC7B9",
"Y@	c #9E9B92",
"Z@	c #575B56",
"`@	c #565A55",
" #	c #5A5E58",
".#	c #53493F",
"+#	c #B26E3B",
"@#	c #D7894C",
"##	c #D28A4B",
"$#	c #CF824A",
"%#	c #CB7E47",
"&#	c #D7904C",
"*#	c #C17545",
"=#	c #BE7642",
"-#	c #B4703E",
";#	c #8B5E30",
">#	c #58453C",
",#	c #58524F",
"'#	c #2B1809",
")#	c #474A47",
"!#	c #5D615A",
"~#	c #585D57",
"{#	c #525652",
"]#	c #424542",
"^#	c #151413",
"/#	c #181716",
"(#	c #231F19",
"_#	c #C7C0B4",
":#	c #C5BEB1",
"<#	c #CDC8BF",
"[#	c #797C75",
"}#	c #8A8E85",
"|#	c #5F574C",
"1#	c #D3824C",
"2#	c #CC8648",
"3#	c #CD8048",
"4#	c #CC8048",
"5#	c #D88F4C",
"6#	c #C17444",
"7#	c #BD7541",
"8#	c #B36F3E",
"9#	c #895C2E",
"0#	c #3E3734",
"a#	c #504F4F",
"b#	c #29221E",
"c#	c #575B55",
"d#	c #878B82",
"e#	c #6A6E67",
"f#	c #181918",
"g#	c #121211",
"h#	c #10100F",
"i#	c #131212",
"j#	c #161514",
"k#	c #D1CDC3",
"l#	c #6B6F67",
"m#	c #7F8277",
"n#	c #625A4E",
"o#	c #B36F3C",
"p#	c #D0824A",
"q#	c #D18A4A",
"r#	c #CC7F48",
"s#	c #CE8149",
"t#	c #D68D4B",
"u#	c #C07843",
"v#	c #B67340",
"w#	c #825A2A",
"x#	c #535251",
"y#	c #2F2E2E",
"z#	c #27211D",
"A#	c #626661",
"B#	c #686D64",
"C#	c #161716",
"D#	c #121212",
"E#	c #C3BAAB",
"F#	c #D6D1C7",
"G#	c #D3D0C8",
"H#	c #797B70",
"I#	c #5B5348",
"J#	c #CF8149",
"K#	c #CE8848",
"L#	c #CB7D48",
"M#	c #D78E4D",
"N#	c #C57A47",
"O#	c #BF7842",
"P#	c #B5713F",
"Q#	c #81592B",
"R#	c #454544",
"S#	c #444343",
"T#	c #1C1109",
"U#	c #565953",
"V#	c #686C65",
"W#	c #5D605A",
"X#	c #121111",
"Y#	c #D6D1C6",
"Z#	c #D5D1CB",
"`#	c #C9C6BF",
" $	c #585C56",
".$	c #5A5D58",
"+$	c #52473E",
"@$	c #B16E3B",
"#$	c #CD7F48",
"$$	c #CB8847",
"%$	c #CD8049",
"&$	c #D08249",
"*$	c #DA8E50",
"=$	c #C07842",
"-$	c #BD7642",
";$	c #80562A",
">$	c #372115",
",$	c #3C2315",
"'$	c #24150B",
")$	c #434743",
"!$	c #5F635D",
"~$	c #1E201F",
"{$	c #1B1C1B",
"]$	c #111111",
"^$	c #171615",
"/$	c #D9D5CD",
"($	c #A9A8A2",
"_$	c #7E8279",
":$	c #868A81",
"<$	c #82877E",
"[$	c #5F5A51",
"}$	c #B46F3C",
"|$	c #CE8949",
"1$	c #D0804C",
"2$	c #D08349",
"3$	c #D4844D",
"4$	c #BB7440",
"5$	c #B6703E",
"6$	c #AE6A3C",
"7$	c #7C5128",
"8$	c #462415",
"9$	c #402215",
"0$	c #1F1006",
"a$	c #797C73",
"b$	c #525651",
"c$	c #1F1D18",
"d$	c #D9D5CC",
"e$	c #ABAAA5",
"f$	c #7E8277",
"g$	c #767A6E",
"h$	c #5A5247",
"i$	c #B26F3B",
"j$	c #CA7C47",
"k$	c #C47E43",
"l$	c #CD7C4B",
"m$	c #CE7D48",
"n$	c #D3854B",
"o$	c #B56C3F",
"p$	c #AB6639",
"q$	c #A35F36",
"r$	c #744625",
"s$	c #4A2718",
"t$	c #442416",
"u$	c #201006",
"v$	c #696C64",
"w$	c #7C7F74",
"x$	c #818479",
"y$	c #535650",
"z$	c #1E1C18",
"A$	c #201D19",
"B$	c #252018",
"C$	c #D5CFC5",
"D$	c #ACABA6",
"E$	c #7D8277",
"F$	c #808277",
"G$	c #71756B",
"H$	c #5A5249",
"I$	c #B16C3B",
"J$	c #C37544",
"K$	c #BD7A40",
"L$	c #C57347",
"M$	c #C97945",
"N$	c #CC7D49",
"O$	c #A76236",
"P$	c #9D5933",
"Q$	c #925030",
"R$	c #6F4123",
"S$	c #492617",
"T$	c #432315",
"U$	c #60645F",
"V$	c #7C7F75",
"W$	c #7F8075",
"X$	c #777A6F",
"Y$	c #545751",
"Z$	c #221F19",
"`$	c #242019",
" %	c #D3CEC2",
".%	c #D8D3CA",
"+%	c #DAD7CF",
"@%	c #AAA9A3",
"#%	c #73776D",
"$%	c #656961",
"%%	c #544B43",
"&%	c #B0693B",
"*%	c #BC6F40",
"=%	c #B4723C",
"-%	c #BB6943",
";%	c #BE7040",
">%	c #C37444",
",%	c #9B5832",
"'%	c #934F30",
")%	c #85472C",
"!%	c #683B21",
"~%	c #3D1F13",
"{%	c #1B0E06",
"]%	c #020202",
"^%	c #4A4D49",
"/%	c #71756D",
"(%	c #2B251C",
"_%	c #2A251C",
":%	c #D6D0C6",
"<%	c #CAC7C1",
"[%	c #B2B0AB",
"}%	c #5F635C",
"|%	c #70746D",
"1%	c #575046",
"2%	c #AB613A",
"3%	c #B0633B",
"4%	c #AA6A38",
"5%	c #B05E3F",
"6%	c #AD613A",
"7%	c #B76840",
"8%	c #8D4C2F",
"9%	c #81432B",
"0%	c #733B26",
"a%	c #562E1B",
"b%	c #422214",
"c%	c #371C11",
"d%	c #1F130C",
"e%	c #12100E",
"f%	c #12110E",
"g%	c #13120F",
"h%	c #70756E",
"i%	c #626660",
"j%	c #363531",
"k%	c #2F2F29",
"l%	c #342E26",
"m%	c #322C23",
"n%	c #D7D2C9",
"o%	c #D3D1C9",
"p%	c #60594D",
"q%	c #9D5932",
"r%	c #9E5434",
"s%	c #9C5B31",
"t%	c #A05339",
"u%	c #964E33",
"v%	c #A15439",
"w%	c #82422D",
"x%	c #733B27",
"y%	c #663422",
"z%	c #472416",
"A%	c #331D13",
"B%	c #261A13",
"C%	c #1E1A15",
"D%	c #1D1B16",
"E%	c #1E1C17",
"F%	c #656963",
"G%	c #312D26",
"H%	c #D9D4CC",
"I%	c #D4D2CB",
"J%	c #70746C",
"K%	c #5D574C",
"L%	c #8E4F2C",
"M%	c #8C492E",
"N%	c #884A2C",
"O%	c #8D4733",
"P%	c #85432D",
"Q%	c #8F4B32",
"R%	c #7C5B52",
"S%	c #705649",
"T%	c #3D2D24",
"U%	c #23201D",
"V%	c #22201D",
"W%	c #23211C",
"X%	c #24211C",
"Y%	c #25221D",
"Z%	c #26231D",
"`%	c #595B55",
" &	c #6E7269",
".&	c #2E2920",
"+&	c #D3CCC0",
"@&	c #DAD6CE",
"#&	c #D5D3CC",
"$&	c #636760",
"%&	c #646760",
"&&	c #504A42",
"*&	c #7E4526",
"=&	c #763D27",
"-&	c #6E4638",
";&	c #7E6660",
">&	c #8B837F",
",&	c #A9A7A4",
"'&	c #B7B5B1",
")&	c #8C796B",
"!&	c #403731",
"~&	c #2C2924",
"{&	c #2D2925",
"]&	c #2D2924",
"^&	c #302D27",
"/&	c #4E504B",
"(&	c #70736B",
"_&	c #28231A",
":&	c #312A22",
"<&	c #262117",
"[&	c #DAD6CF",
"}&	c #D7D3CC",
"|&	c #A4A29C",
"1&	c #A7A5A0",
"2&	c #A3A19C",
"3&	c #A8A29B",
"4&	c #B1AEAA",
"5&	c #D6D4D1",
"6&	c #D9D7D3",
"7&	c #DAD8D4",
"8&	c #DBD9D5",
"9&	c #D8D5D0",
"0&	c #A1897A",
"a&	c #473D36",
"b&	c #2D2A27",
"c&	c #2E2B26",
"d&	c #2E2B25",
"e&	c #2F2B25",
"f&	c #32312D",
"g&	c #383935",
"h&	c #3A3C37",
"i&	c #312C24",
"j&	c #262118",
"k&	c #CEC7B8",
"l&	c #DFDDD9",
"m&	c #E0DFDB",
"n&	c #E0DED9",
"o&	c #DFDDD8",
"p&	c #DBD8D3",
"q&	c #A48C7D",
"r&	c #473D35",
"s&	c #242018",
"  . . . + +   + +   + + + @ # $ % & * = - ; > , ' ) ! * ~ { ] * ",
"    + + .                 ^ / ( _ : < [ } | 1 2 3 4 = 5 6 7 8 ~ ",
"9 0 0   0 9 0 0 0         a b c d e f g h i 1 j k l m n o ) = 8 ",
"p 9 0   0 9 9 9 9 0 q   + r s t b u v [ ~ ; w x y z A B | 8 C ~ ",
"9 9 0     0 0 0 D E F G H I J K L M N O P Q R S T z 1 U V W 6 = ",
"0 0   @ +   + X Y Z `  ...+.@.#.$.%.&.*.=.-.;.>.,.'.3 ).h = !.~.",
"q   + # @ @ {.].^./.(._.:.<.[.}.|.1.2.3.4.f 5.6.7.8.l | 9.5 * { ",
"  + # 0.0.a.b.c.d.e.=.f.g.h.i.j.k.l.m.n.o.p.q.r.s.t.V u.v.C ! * ",
"+ w.w.0.0.0.x.y.z.A.B.C.D.E.F.G.H.I.J.K.L.M.N.O.|.P.Q.R.~ C & ! ",
"@ # 0.0.0.S.<.T.U.V.W.X.Y.Z.`. +.+++@+#+$+%+&+*+=+-+i 3 7 ~ W ;+",
"@ 0.>+,+>+'+)+s !+~+{+]+^+/+(+_+:+<+[+}+|+1+2+3+4+5+6+3 4 ;+7+8+",
"a.0.9+9+9+0+A.a+b+c+d+e+f+g+h+(+i+j+k+l+m+1+1+n+o+p+q+r+s+8 t+{ ",
"0.9+u+u+v+w+x+y+z+A+B+C+D+E+F+G+H+I+J+K+m+1+1+L+y+x+M+N+O+= ;+{ ",
">+9+u+P+Q+R+S+T+U+V+W+X+Y+E+Z+`+ @.@+@l+@@1+1+1+#@$@R+%@&@*@7 { ",
"9+=@-@;@>@,@'@)@!@~@{@X+]@^@/@(@_@:@<@[@}@1+1+1+|@=+1@2@3@[ 4@5@",
"6@7@8@9@0@r.a@b@c@d@e@f@g@h@i@j@F+k@l@m@}@1+1+1+n@o@p@q@r@s@t@u@",
"v@w@x@y@z@o@M A@B@C@D@E@F@G@H@I@J@K@L@M@N@1+1+1+O@P@Q@K R@S@T@U@",
"V@W@X@Y@Z@`@ #.#+#@###$#%#&#*#=#-#;#>#,#'#1+1+1+)#!#~#{#]#^#/#(#",
"_#W :#& <#[#}#|#+#1#2#3#4#5#6#7#8#9#0#a#b#1+1+1+c#d#e#f#g#h#i#j#",
"7 ' 6 ! k#l#m#n#o#p#q#r#s#t#6#u#v#w#x#y#z#1+1+1+A#A.B#C#h#h#h#D#",
"E#~ ~.F#G#)+H#I#o#J#K#L#J#M#N#O#P#Q#R#S#T#1+1+1+U#V#W#C#h#h#X#^#",
"6 ~ Y#Z#`# $.$+$@$#$$$%$&$*$=$-$8#;$>$,$'$1+1+1+)$!$`@~${$h#]$^$",
"*@;+/$($_$:$<$[$}$#$|$1$2$3$4$5$6$7$8$9$0$1+1+1+.$( $.a$b$g#^$c$",
"7 ] d$e$7.f$g$h$i$j$k$l$m$n$o$p$q$r$s$t$u$1+1+1+n@v$w$x$y$z$A$B$",
"t+C$/$D$E$F$G$H$I$J$K$L$M$N$O$P$Q$R$S$T$u$1+1+1+U$V$W$X$Y$Z$B$`$",
" %.%+%@%#%p+$%%%&%*%=%-%;%>%,%'%)%!%8$~%{%]%]%]%^%/%|.e#)#(%_%Z$",
"8+:%/$<%[%}%|%1%2%3%4%5%6%7%8%9%0%a%b%c%d%e%f%g%n+h%i%j%k%l%m%(#",
"* n%/$/$o%5+3.p%q%r%s%t%u%v%w%x%y%z%A%B%C%D%D%E%F%e.<.G%9+u+B$(#",
";+{ H%d$I%|.J%K%L%M%N%O%P%Q%R%S%T%U%V%W%X%Y%Z%Y%`%K  &G%u+.&_%B$",
"8 +&/$@&#&$&%&&&*&=&-&;&>&,&'&)&!&  +   ~&{&]&^&/&K (&G%-@_&:&<&",
"4 +&.%[&}&|&1&2&3&4&5&6&7&8&9&0&a&b&b&c&d&e&e&e&f&g&h&i&u+j&j&_%",
"k&8 ! F#d$H%H%/$/$N+l&m&n&o&p&q&r&a.# # w.w.0.0.>+9+9+u+.&s&s&Z$"};
