/* XPM */
static char * door_close_xpm[] = {
"32 32 730 2",
"  	c #2A2825",
". 	c #2B2825",
"+ 	c #2B2925",
"@ 	c #2C2925",
"# 	c #363530",
"$ 	c #4F443D",
"% 	c #897B6F",
"& 	c #C4BFB4",
"* 	c #CCC6BB",
"= 	c #D0C9BB",
"- 	c #BEB5A6",
"; 	c #D2CBBD",
"> 	c #D8D3C8",
", 	c #C6BCAF",
"' 	c #CFC7B8",
") 	c #D0C9BA",
"! 	c #D4CEC2",
"~ 	c #D3CDC1",
"{ 	c #D1CABC",
"] 	c #D5CFC4",
"^ 	c #D5D0C5",
"/ 	c #595D56",
"( 	c #868B82",
"_ 	c #868B81",
": 	c #858A80",
"< 	c #82877E",
"[ 	c #80837A",
"} 	c #CDC6B9",
"| 	c #CABEB0",
"1 	c #DAD5CB",
"2 	c #DEDBD4",
"3 	c #E0DED8",
"4 	c #DCD8D0",
"5 	c #CFC8BA",
"6 	c #D0C9BC",
"7 	c #CFC8B9",
"8 	c #D1CABD",
"9 	c #D2CBBE",
"0 	c #282724",
"a 	c #292724",
"b 	c #5E625B",
"c 	c #7A7D74",
"d 	c #7C7F74",
"e 	c #7C7F76",
"f 	c #676B64",
"g 	c #70736B",
"h 	c #CCC6B8",
"i 	c #D7D2C7",
"j 	c #DDD9D2",
"k 	c #E1DFDA",
"l 	c #E3E1DD",
"m 	c #DDD9D1",
"n 	c #CEC5BA",
"o 	c #C9BEAE",
"p 	c #C9BDAE",
"q 	c #272624",
"r 	c #292825",
"s 	c #2C2A26",
"t 	c #42443F",
"u 	c #777B71",
"v 	c #797B71",
"w 	c #6E7169",
"x 	c #71726C",
"y 	c #CAC4B7",
"z 	c #D7CDC2",
"A 	c #E0DDD8",
"B 	c #E2E0DB",
"C 	c #E5E4E1",
"D 	c #E1DED9",
"E 	c #DBD6CD",
"F 	c #D0C8BA",
"G 	c #50534E",
"H 	c #3B3B36",
"I 	c #2C2B28",
"J 	c #4E514D",
"K 	c #70766E",
"L 	c #5A5F59",
"M 	c #70736A",
"N 	c #6F736B",
"O 	c #797C72",
"P 	c #787B72",
"Q 	c #646962",
"R 	c #7B8078",
"S 	c #96958C",
"T 	c #B6AC9E",
"U 	c #B7ADA0",
"V 	c #A5A49C",
"W 	c #E0DDD7",
"X 	c #DAD6CC",
"Y 	c #DBD7CE",
"Z 	c #D3CDC0",
"` 	c #5E625C",
" .	c #7C8177",
"..	c #6A6F67",
"+.	c #656A63",
"@.	c #7B8177",
"#.	c #757A71",
"$.	c #646A63",
"%.	c #6E7269",
"&.	c #7C8076",
"*.	c #7B7F75",
"=.	c #6B716A",
"-.	c #72786F",
";.	c #71766D",
">.	c #696E67",
",.	c #8A8D82",
"'.	c #878B80",
").	c #9B9B95",
"!.	c #E2E0DC",
"~.	c #D4CEC4",
"{.	c #D1CBBE",
"].	c #D1CBBD",
"^.	c #2D2A24",
"/.	c #41423E",
"(.	c #767C72",
"_.	c #767A71",
":.	c #757A70",
"<.	c #686D66",
"[.	c #777D74",
"}.	c #747970",
"|.	c #625D55",
"1.	c #6A594E",
"2.	c #79685C",
"3.	c #856D5E",
"4.	c #736256",
"5.	c #68645C",
"6.	c #74786E",
"7.	c #73766C",
"8.	c #6D726A",
"9.	c #85887C",
"0.	c #83877C",
"a.	c #7D8177",
"b.	c #B5B3AD",
"c.	c #CBC2B5",
"d.	c #2E2A24",
"e.	c #2D2A25",
"f.	c #575A54",
"g.	c #767A70",
"h.	c #757B71",
"i.	c #595048",
"j.	c #865136",
"k.	c #975634",
"l.	c #A35D39",
"m.	c #975735",
"n.	c #B86C43",
"o.	c #AC633D",
"p.	c #A7603B",
"q.	c #8B5438",
"r.	c #5E534A",
"s.	c #81857B",
"t.	c #808379",
"u.	c #7C7F75",
"v.	c #767871",
"w.	c #DBD7CF",
"x.	c #C9C0B4",
"y.	c #D3CCC1",
"z.	c #2C2A25",
"A.	c #3F403A",
"B.	c #7A7F76",
"C.	c #656962",
"D.	c #6E736A",
"E.	c #5E5247",
"F.	c #854E2D",
"G.	c #B1683E",
"H.	c #B0693E",
"I.	c #BC7142",
"J.	c #AC683C",
"K.	c #D4864D",
"L.	c #C87A48",
"M.	c #C27545",
"N.	c #B26B3F",
"O.	c #A5613C",
"P.	c #614F44",
"Q.	c #696D66",
"R.	c #686C65",
"S.	c #7A7E74",
"T.	c #B7B3AA",
"U.	c #DCD9D1",
"V.	c #D9D3C9",
"W.	c #D2CCC0",
"X.	c #2E2B25",
"Y.	c #6B6F66",
"Z.	c #787B71",
"`.	c #71756D",
" +	c #544339",
".+	c #985934",
"++	c #9F5F36",
"@+	c #C77A47",
"#+	c #C87D47",
"$+	c #CE824A",
"%+	c #BB7541",
"&+	c #E49655",
"*+	c #D5864D",
"=+	c #D1844B",
"-+	c #CA7D4A",
";+	c #C27747",
">+	c #A8643B",
",+	c #5D493D",
"'+	c #7F8379",
")+	c #82877D",
"!+	c #7C7E75",
"~+	c #DBD7D0",
"{+	c #D2CCBF",
"]+	c #2F2B24",
"^+	c #2F2B23",
"/+	c #484944",
"(+	c #62665F",
"_+	c #74786D",
":+	c #686960",
"<+	c #965834",
"[+	c #B56E3E",
"}+	c #B06F3C",
"|+	c #D5884C",
"1+	c #D3874B",
"2+	c #D78A4D",
"3+	c #C17C42",
"4+	c #E69B57",
"5+	c #D7894E",
"6+	c #CE834A",
"7+	c #D2864D",
"8+	c #C37846",
"9+	c #A6643A",
"0+	c #70695D",
"a+	c #777A70",
"b+	c #636760",
"c+	c #B7B5B0",
"d+	c #D4CEC3",
"e+	c #D4CFC4",
"f+	c #302B23",
"g+	c #686A61",
"h+	c #71756C",
"i+	c #755039",
"j+	c #B1693E",
"k+	c #BA773F",
"l+	c #D88B4E",
"m+	c #D98D4D",
"n+	c #D8894E",
"o+	c #C27B43",
"p+	c #E49855",
"q+	c #D2854B",
"r+	c #D3864C",
"s+	c #CD8349",
"t+	c #D18949",
"u+	c #CC8048",
"v+	c #BC7341",
"w+	c #84573D",
"x+	c #6C7068",
"y+	c #73776D",
"z+	c #94958F",
"A+	c #D9D4CA",
"B+	c #C4BBAC",
"C+	c #D3CDC2",
"D+	c #302B22",
"E+	c #2F2A22",
"F+	c #696C61",
"G+	c #72766B",
"H+	c #6A6E65",
"I+	c #9B5E33",
"J+	c #C37845",
"K+	c #CF824A",
"L+	c #C07D41",
"M+	c #DA8E4F",
"N+	c #DE8F51",
"O+	c #D4864C",
"P+	c #BE7841",
"Q+	c #E19753",
"R+	c #D1844A",
"S+	c #D08B47",
"T+	c #CC8047",
"U+	c #C47A43",
"V+	c #A7653A",
"W+	c #86877F",
"X+	c #DCD9D3",
"Y+	c #CBC4B9",
"Z+	c #35332D",
"`+	c #595B54",
" @	c #7E827A",
".@	c #83877F",
"+@	c #625D53",
"@@	c #BF7443",
"#@	c #CD8049",
"$@	c #C58145",
"%@	c #DD9050",
"&@	c #D68B4C",
"*@	c #BD7741",
"=@	c #E19553",
"-@	c #D2894A",
";@	c #D48E4B",
">@	c #CC8148",
",@	c #C17644",
"'@	c #5F584F",
")@	c #7A7E76",
"!@	c #747870",
"~@	c #BFBFB9",
"{@	c #B4B0A6",
"]@	c #CFC7B9",
"^@	c #312B23",
"/@	c #312B22",
"(@	c #474841",
"_@	c #767B72",
":@	c #6F746B",
"<@	c #695B4C",
"[@	c #CD7F49",
"}@	c #D1834B",
"|@	c #D98B4F",
"1@	c #C68145",
"2@	c #DE9053",
"3@	c #D3864B",
"4@	c #C47C45",
"5@	c #DF9551",
"6@	c #DB8F4E",
"7@	c #D98B4E",
"8@	c #D2884B",
"9@	c #DB9251",
"0@	c #D4874C",
"a@	c #C97E47",
"b@	c #726253",
"c@	c #787C72",
"d@	c #81847B",
"e@	c #76796F",
"f@	c #72736E",
"g@	c #CFC8BB",
"h@	c #CEC7BA",
"i@	c #D2CCC1",
"j@	c #453A31",
"k@	c #453B32",
"l@	c #463A32",
"m@	c #52504A",
"n@	c #7B8077",
"o@	c #695A4B",
"p@	c #CE8148",
"q@	c #D4874B",
"r@	c #D6884C",
"s@	c #C47F44",
"t@	c #DE9052",
"u@	c #D0844A",
"v@	c #BF7942",
"w@	c #DD934F",
"x@	c #DD8F4F",
"y@	c #CD8249",
"z@	c #DD9452",
"A@	c #D68A4D",
"B@	c #827262",
"C@	c #7B7E74",
"D@	c #5C5C54",
"E@	c #7D6857",
"F@	c #866F5B",
"G@	c #89725D",
"H@	c #B5A8A1",
"I@	c #AD9E93",
"J@	c #AF9B8A",
"K@	c #8B7E72",
"L@	c #6E726A",
"M@	c #69594A",
"N@	c #CB7E47",
"O@	c #D2834B",
"P@	c #D4854C",
"Q@	c #C37E43",
"R@	c #DC8E51",
"S@	c #D0824A",
"T@	c #CF8249",
"U@	c #BE7741",
"V@	c #DE954E",
"W@	c #D7874F",
"X@	c #CB8048",
"Y@	c #DC9351",
"Z@	c #DA914E",
"`@	c #817061",
" #	c #777A71",
".#	c #74776F",
"+#	c #6D7168",
"@#	c #4D504B",
"##	c #352A25",
"$#	c #372B26",
"%#	c #44362C",
"&#	c #B6AB9F",
"*#	c #CEC7B9",
"=#	c #AAA69C",
"-#	c #797972",
";#	c #5A5E59",
">#	c #646863",
",#	c #614F41",
"'#	c #CD7F48",
")#	c #D1834A",
"!#	c #C17B43",
"~#	c #DA8C4F",
"{#	c #CF8149",
"]#	c #B6713F",
"^#	c #DF9452",
"/#	c #D3844C",
"(#	c #D5874B",
"_#	c #CA7D47",
":#	c #D9904F",
"<#	c #DA924E",
"[#	c #604F42",
"}#	c #676B65",
"|#	c #5B5F5A",
"1#	c #444945",
"2#	c #393C3A",
"3#	c #151413",
"4#	c #181716",
"5#	c #231F19",
"6#	c #C7C0B4",
"7#	c #C5BEB1",
"8#	c #CFCAC0",
"9#	c #797D75",
"0#	c #858980",
"a#	c #6E5E4E",
"b#	c #CE8049",
"c#	c #BB7741",
"d#	c #CC7F48",
"e#	c #CE8149",
"f#	c #B6713E",
"g#	c #DD9150",
"h#	c #CE7F48",
"i#	c #D18349",
"j#	c #C67B45",
"k#	c #D48C4B",
"l#	c #C87B45",
"m#	c #CD7E48",
"n#	c #D68D4C",
"o#	c #776B5F",
"p#	c #171716",
"q#	c #111110",
"r#	c #10100F",
"s#	c #131212",
"t#	c #161514",
"u#	c #D1CDC3",
"v#	c #686B63",
"w#	c #7F8175",
"x#	c #6D5E4E",
"y#	c #CD8048",
"z#	c #D08249",
"A#	c #C27C43",
"B#	c #D6894D",
"C#	c #BC7540",
"D#	c #D98C4E",
"E#	c #CC7E47",
"F#	c #BC784D",
"G#	c #BD8163",
"H#	c #CD8953",
"I#	c #807061",
"J#	c #676B63",
"K#	c #161716",
"L#	c #121212",
"M#	c #C3BAAB",
"N#	c #D6D1C7",
"O#	c #D3D0C8",
"P#	c #666A61",
"Q#	c #74766B",
"R#	c #675748",
"S#	c #CB7D47",
"T#	c #CF8049",
"U#	c #BC7840",
"V#	c #D6874D",
"W#	c #CE8048",
"X#	c #B9733F",
"Y#	c #CD7F47",
"Z#	c #C87F46",
"`#	c #D08949",
" $	c #84685B",
".$	c #9E9E9E",
"+$	c #B88B65",
"@$	c #776453",
"#$	c #686C64",
"$$	c #5B5E59",
"%$	c #121111",
"&$	c #D6D1C6",
"*$	c #C6C2BC",
"=$	c #A9A8A2",
"-$	c #525652",
";$	c #5D4A3B",
">$	c #BA7840",
",$	c #D88C4D",
"'$	c #BA7340",
")$	c #DD9151",
"!$	c #CE8248",
"~$	c #CF8C48",
"{$	c #978D89",
"]$	c #7C7C7C",
"^$	c #B39A8D",
"/$	c #574B41",
"($	c #575C57",
"_$	c #333634",
":$	c #2F3130",
"<$	c #111111",
"[$	c #171615",
"}$	c #D9D5CD",
"|$	c #AAA9A4",
"1$	c #84887D",
"2$	c #8B8F85",
"3$	c #888C81",
"4$	c #6E6153",
"5$	c #CC7F47",
"6$	c #BB7740",
"7$	c #DA8A50",
"8$	c #D08349",
"9$	c #B5703E",
"0$	c #DE9151",
"a$	c #CD8047",
"b$	c #C97D48",
"c$	c #CA8847",
"d$	c #656362",
"e$	c #4F4F4D",
"f$	c #796E69",
"g$	c #70685F",
"h$	c #808479",
"i$	c #82847A",
"j$	c #535752",
"k$	c #121211",
"l$	c #1F1D18",
"m$	c #D9D5CC",
"n$	c #ABAAA5",
"o$	c #7B8076",
"p$	c #73776C",
"q$	c #675849",
"r$	c #C87A46",
"s$	c #CA7C47",
"t$	c #C57845",
"u$	c #B06E3B",
"v$	c #D8864E",
"w$	c #CF7F48",
"x$	c #CE7F49",
"y$	c #B26E3C",
"z$	c #D8874F",
"A$	c #C77B45",
"B$	c #CC7E48",
"C$	c #C07643",
"D$	c #C88346",
"E$	c #6A625E",
"F$	c #838382",
"G$	c #6D5952",
"H$	c #706B61",
"I$	c #6E7168",
"J$	c #7D8075",
"K$	c #7F8277",
"L$	c #525550",
"M$	c #1E1C18",
"N$	c #201D19",
"O$	c #252018",
"P$	c #D5CFC5",
"Q$	c #ACABA6",
"R$	c #7F8276",
"S$	c #71756A",
"T$	c #695749",
"U$	c #C47445",
"V$	c #C07143",
"W$	c #B96B3F",
"X$	c #A36436",
"Y$	c #D1804C",
"Z$	c #C87746",
"`$	c #C87945",
" %	c #AD683A",
".%	c #D7874E",
"+%	c #C07441",
"@%	c #C57844",
"#%	c #B96E3F",
"$%	c #9F5F34",
"%%	c #9E5E35",
"&%	c #BE7A40",
"*%	c #6C675F",
"=%	c #7D8176",
"-%	c #7E8075",
";%	c #767970",
">%	c #535651",
",%	c #221F19",
"'%	c #242019",
")%	c #D3CEC2",
"!%	c #D8D3CA",
"~%	c #DAD7CF",
"{%	c #A8A7A1",
"]%	c #686C63",
"^%	c #61655E",
"/%	c #5B5F59",
"(%	c #5F4D41",
"_%	c #C06C45",
":%	c #B4653E",
"<%	c #B2643D",
"[%	c #9B5D32",
"}%	c #C87548",
"|%	c #BE7040",
"1%	c #BE6F40",
"2%	c #A46036",
"3%	c #CD7D48",
"4%	c #AD6638",
"5%	c #B7693D",
"6%	c #AC6239",
"7%	c #B96F3F",
"8%	c #AA6338",
"9%	c #A35D36",
"0%	c #B9723E",
"a%	c #4F4840",
"b%	c #646861",
"c%	c #5F635D",
"d%	c #414541",
"e%	c #2B251C",
"f%	c #2A251C",
"g%	c #D6D0C6",
"h%	c #D9D6D0",
"i%	c #D1CEC8",
"j%	c #6A6E67",
"k%	c #7F837A",
"l%	c #66574D",
"m%	c #A25636",
"n%	c #A15635",
"o%	c #90552D",
"p%	c #BD6B44",
"q%	c #B0643A",
"r%	c #AE603B",
"s%	c #9A5931",
"t%	c #C37344",
"u%	c #A25A34",
"v%	c #A75C38",
"w%	c #9F5735",
"x%	c #AE653A",
"y%	c #91502F",
"z%	c #874A2D",
"A%	c #AA6538",
"B%	c #5F5B52",
"C%	c #81857C",
"D%	c #322E28",
"E%	c #2C2820",
"F%	c #342E26",
"G%	c #322C23",
"H%	c #D7D2C9",
"I%	c #D3D1C9",
"J%	c #73786F",
"K%	c #65594F",
"L%	c #934D31",
"M%	c #924C30",
"N%	c #814728",
"O%	c #AB5B3D",
"P%	c #9D5335",
"Q%	c #A15537",
"R%	c #8F4F2E",
"S%	c #B2643E",
"T%	c #975031",
"U%	c #965032",
"V%	c #8D4B2E",
"W%	c #9D5734",
"X%	c #7B4127",
"Y%	c #7A4127",
"Z%	c #985631",
"`%	c #736D62",
" &	c #686D65",
".&	c #312D26",
"+&	c #D9D4CC",
"@&	c #D4D2CB",
"#&	c #5D544A",
"$&	c #81422B",
"%&	c #80422B",
"&&	c #7E4129",
"*&	c #703C23",
"=&	c #974D36",
"-&	c #8A462F",
";&	c #904B30",
">&	c #7D4229",
",&	c #A1533B",
"'&	c #7F422A",
")&	c #82432C",
"!&	c #7B3F29",
"~&	c #86462C",
"{&	c #723C23",
"]&	c #773E26",
"^&	c #84472A",
"/&	c #5C5950",
"(&	c #73776E",
"_&	c #70746B",
":&	c #2E2920",
"<&	c #D3CCC0",
"[&	c #DAD6CE",
"}&	c #D5D3CC",
"|&	c #5C605A",
"1&	c #524740",
"2&	c #753B27",
"3&	c #733B26",
"4&	c #703924",
"5&	c #683820",
"6&	c #894531",
"7&	c #7A3D29",
"8&	c #7F412A",
"9&	c #733C25",
"0&	c #954C36",
"a&	c #743B26",
"b&	c #763C28",
"c&	c #6E3824",
"d&	c #743B27",
"e&	c #693721",
"f&	c #6C3822",
"g&	c #753D25",
"h&	c #554D44",
"i&	c #696E66",
"j&	c #676A63",
"k&	c #28231A",
"l&	c #312A22",
"m&	c #262117",
"n&	c #DAD6CF",
"o&	c #D8D4CD",
"p&	c #C1BEB7",
"q&	c #C3C0BA",
"r&	c #C3BFB9",
"s&	c #C5BFB8",
"t&	c #C7C3BD",
"u&	c #C9C4C1",
"v&	c #C8C4C0",
"w&	c #C9C4BF",
"x&	c #C8C4BF",
"y&	c #C5BFBA",
"z&	c #957C6C",
"A&	c #4F3B31",
"B&	c #3B2B23",
"C&	c #3A2B22",
"D&	c #3C2B22",
"E&	c #3A2B21",
"F&	c #3B2B22",
"G&	c #322D25",
"H&	c #312E28",
"I&	c #33322C",
"J&	c #302C24",
"K&	c #262118",
"L&	c #CEC7B8",
"M&	c #DDDAD4",
"N&	c #DFDDD9",
"O&	c #E0DFDB",
"P&	c #E0DED9",
"Q&	c #DFDDD8",
"R&	c #DBD8D3",
"S&	c #A48C7D",
"T&	c #473D35",
"U&	c #242018",
"  . . . + +   + +   + + + @ # $ % & * = - ; > , ' ) ! ~ { ] ^ ~ ",
"    + + .                 / ( _ : < [ } | 1 2 3 4 5 = 6 7 8 9 { ",
"0 a a   a 0 a a a         b c d e f g h i j 2 k l m n o p ) = 9 ",
"q 0 a   a 0 0 0 0 a r   s t u v c w x y { ; z A B C D E 1 9 F { ",
"0 0 a     a a a G H I J K L M N O P Q R S T U V W C 2 X Y Z 7 = ",
"a a   @ +   + `  ...+.@.#.$.%.&.*.u =.-.;.>.,.'.).!.4 ~.i = {.].",
"r   + ^.@ @ /.(._.:.<.[.}.|.1.2.3.4.5.6.7.8.9.0.a.b.m 1 c.6 ~ ] ",
"  + ^.d.d.e.s f._.g.h.i.j.k.l.m.n.o.p.q.r.s.t.u.v.w.Y x.y.F ! ~ ",
"+ z.z.d.d.d.A.B.C.D.E.F.G.H.I.J.K.L.M.N.O.P.Q.R.S.T.U.V.{ F W.! ",
"@ ^.d.d.d.X.Y.Z.`. +.+++@+#+$+%+&+*+=+-+;+>+,+'+)+!+~+4 8 { Z {+",
"@ d.]+^+]+/+(+_+:+<+[+}+|+1+2+3+4+5+1+6+7+8+9+0+a+b+c+4 5 {+d+e+",
"e.d.f+f+f+g+g.h+i+j+#+k+l+m+n+o+p+q+r+s+t+u+v+w+x+y+z+A+B+9 C+] ",
"d.f+D+D+E+F+G+H+I+J+K+L+M+N+O+P+Q+R+R+s+S+T+U+V+H+G+W+X+Y+= {+] ",
"]+f+D+Z+`+ @.@+@@@#@2+$@%@&@R+*@=@|+5+-@;@r+>@,@'@)@!@~@{@]@8 ] ",
"f+^@/@(@_@g :@<@[@}@|@1@2@1+3@4@5@6@7@8@9@0@3@a@b@c@d@e@f@g@h@i@",
"j@k@l@m@n@[ v o@p@q@r@s@t@q+u@v@w@x@r@y@z@q+u@A@B@_+e C@D@E@F@G@",
"H@I@J@K@L@g !@M@N@O@P@Q@R@S@T@U@V@7@W@X@Y@K+T@Z@`@ #.#+#@###$#%#",
"~+&#*#=#-#;#>#,#'#)#O@!#~#u+{#]#^#/#(#_#:#u+{#<#[#}#|#1#2#3#4#5#",
"6#Z 7#~ 8#9#0#a#b#)#S@c#2+d#e#f#g#h#i#j#k#l#m#n#o#&.C.p#q#r#s#t#",
"8 ' 7 ! u#v#w#x#y#)#z#A#B#p@T@C#D#E#y#j#k#F#G#H#I#`.J#K#r#r#r#L#",
"M#{ ].N#O#P#Q#R#S#p@T#U#V#W#S@X#l+W#Y#Z#`# $.$+$@$#$$$K#r#r#%$3#",
"7 { &$*$=$-$-$;$W#y#'#>$,$z#)#'$)$!$)#a@~${$]$^$/$($-$_$:$r#<$[$",
"]@{+}$|$1$2$3$4$5$_#_#6$7$8$}@9$0$a${#b$c$d$e$f$g$n@h$i$j$k$[$l$",
"8 ^ m$n$o$t.p$q$r$s$t$u$v$w$x$y$z$A$B$C$D$E$F$G$H$I$J$K$L$M$N$O$",
"C+P$}$Q$a.R$S$T$U$V$W$X$Y$Z$`$ %.%+%@%#%3+$%%%&%*%=%-%;%>%,%O$'%",
")%!%~%{%]%^%/%(%_%:%<%[%}%|%1%2%3%4%5%6%7%8%9%0%a%C.b%c%d%e%f%,%",
"e+g%}$h%i%j%k%l%m%n%n%o%p%q%r%s%t%u%v%w%x%y%z%A%B%C%x+D%E%F%G%5#",
"~ H%}$}$I%H+J%K%L%L%M%N%O%P%Q%R%S%T%U%V%W%X%Y%Z%`%6. &.&f+D+O$5#",
"{+] +&m$@&%.N #&$&%&&&*&=&-&;&>&,&'&)&!&~&{&]&^&/&(&_&.&D+:&f%O$",
"9 <&}$[&}&|&` 1&2&3&4&5&6&7&8&9&0&a&b&c&d&e&f&g&h&i&j&.&/@k&l&m&",
"5 <&!%n&o&p&q&r&s&t&u&v&w&x&y&z&A&B&B&C&D&E&F&F&G&H&I&J&D+K&K&f%",
"L&9 ! N#m$+&+&}$}$M&N&O&P&Q&R&S&T&e.^.^.z.z.d.d.]+f+f+D+:&U&U&,%"};
