/* XPM */
static char * player_xpm[] = {
"32 32 195 2",
"  	c #2A2825",
". 	c #2B2825",
"+ 	c #2B2925",
"@ 	c #2C2925",
"# 	c #2D2A24",
"$ 	c #4E3F36",
"% 	c #918073",
"& 	c #D2CCC0",
"* 	c #D3CDC1",
"= 	c #D0C9BB",
"- 	c #BEB5A6",
"; 	c #D2CBBD",
"> 	c #D8D3C8",
", 	c #C6BCAF",
"' 	c #CFC7B8",
") 	c #D0C9BA",
"! 	c #D4CEC2",
"~ 	c #D1CABC",
"{ 	c #D5CFC4",
"] 	c #D5D0C5",
"^ 	c #323234",
"/ 	c #CABEB0",
"( 	c #DAD5CB",
"_ 	c #DEDBD4",
": 	c #E0DED8",
"< 	c #DCD8D0",
"[ 	c #CFC8BA",
"} 	c #D0C9BC",
"| 	c #CFC8B9",
"1 	c #D1CABD",
"2 	c #D2CBBE",
"3 	c #282724",
"4 	c #292724",
"5 	c #545456",
"6 	c #767678",
"7 	c #E1DFDA",
"8 	c #E3E1DD",
"9 	c #DDD9D1",
"0 	c #CEC5BA",
"a 	c #C9BEAE",
"b 	c #C9BDAE",
"c 	c #272624",
"d 	c #979799",
"e 	c #E0DDD8",
"f 	c #E2E0DB",
"g 	c #E5E4E1",
"h 	c #E1DED9",
"i 	c #DBD6CD",
"j 	c #D0C8BA",
"k 	c #B7B7BB",
"l 	c #E0DDD7",
"m 	c #DAD6CC",
"n 	c #DBD7CE",
"o 	c #D3CDC0",
"p 	c #E2E0DC",
"q 	c #D4CEC4",
"r 	c #D7D2C7",
"s 	c #D1CBBE",
"t 	c #D1CBBD",
"u 	c #292825",
"v 	c #CBC2B5",
"w 	c #2E2A24",
"x 	c #2D2A25",
"y 	c #C9C0B4",
"z 	c #D3CCC1",
"A 	c #2C2A25",
"B 	c #D9D3C9",
"C 	c #D2CCBF",
"D 	c #2F2B24",
"E 	c #2F2B23",
"F 	c #D4CEC3",
"G 	c #D4CFC4",
"H 	c #302B23",
"I 	c #C4BBAC",
"J 	c #D3CDC2",
"K 	c #302B22",
"L 	c #2E1E22",
"M 	c #CBC4B9",
"N 	c #CFC7B9",
"O 	c #312B23",
"P 	c #312B22",
"Q 	c #DDDAD4",
"R 	c #CFC8BB",
"S 	c #CEC7BA",
"T 	c #D2CCC1",
"U 	c #453A31",
"V 	c #453B32",
"W 	c #463A32",
"X 	c #463A31",
"Y 	c #816D5D",
"Z 	c #7D6A58",
"` 	c #7D6857",
" .	c #866F5B",
"..	c #89725D",
"+.	c #B5A8A1",
"@.	c #AD9E93",
"#.	c #AF9B8A",
"$.	c #B09B8B",
"%.	c #B19D8D",
"&.	c #332824",
"*.	c #332A23",
"=.	c #352A25",
"-.	c #372B26",
";.	c #44362C",
">.	c #DBD7D0",
",.	c #B6AB9F",
"'.	c #CEC7B9",
").	c #D0CABE",
"!.	c #D2CDC1",
"~.	c #D1CABE",
"{.	c #DDBD9C",
"].	c #EEDAB3",
"^.	c #FDF0C5",
"/.	c #131312",
"(.	c #181716",
"_.	c #171615",
":.	c #151413",
"<.	c #231F19",
"[.	c #C7C0B4",
"}.	c #C5BEB1",
"|.	c #D5D0C6",
"1.	c #7A6843",
"2.	c #CA9E73",
"3.	c #111110",
"4.	c #10100F",
"5.	c #131212",
"6.	c #161514",
"7.	c #D7D3C9",
"8.	c #121212",
"9.	c #C3BAAB",
"0.	c #D6D1C7",
"a.	c #DAD6CE",
"b.	c #121111",
"c.	c #D6D1C6",
"d.	c #DBD8D0",
"e.	c #DCDAD3",
"f.	c #111010",
"g.	c #111111",
"h.	c #D9D5CD",
"i.	c #DCD9D3",
"j.	c #DBD8D1",
"k.	c #121211",
"l.	c #1F1D18",
"m.	c #D9D5CC",
"n.	c #1C1A17",
"o.	c #1E1C18",
"p.	c #201D19",
"q.	c #252018",
"r.	c #D5CFC5",
"s.	c #DDDBD5",
"t.	c #534721",
"u.	c #A77E5D",
"v.	c #221F19",
"w.	c #242019",
"x.	c #D3CEC2",
"y.	c #D8D3CA",
"z.	c #DAD7CF",
"A.	c #DDDAD3",
"B.	c #DDDAD5",
"C.	c #8B5E4A",
"D.	c #342C23",
"E.	c #2B251C",
"F.	c #2A251C",
"G.	c #D6D0C6",
"H.	c #DCD8D2",
"I.	c #E0DFDB",
"J.	c #2C271E",
"K.	c #342E26",
"L.	c #322C23",
"M.	c #D7D2C9",
"N.	c #DFDDD9",
"O.	c #DFDED9",
"P.	c #D9D4CC",
"Q.	c #DEDBD6",
"R.	c #DFDCD8",
"S.	c #E1E0DC",
"T.	c #2E2920",
"U.	c #D3CCC0",
"V.	c #DCD9D2",
"W.	c #E0DEDA",
"X.	c #E1DFDC",
"Y.	c #77584A",
"Z.	c #473C35",
"`.	c #2F2A24",
" +	c #28231A",
".+	c #312A22",
"++	c #262117",
"@+	c #DAD6CF",
"#+	c #DEDCD7",
"$+	c #E0DEDB",
"%+	c #473D35",
"&+	c #262118",
"*+	c #CEC7B8",
"=+	c #A48C7D",
"-+	c #242018",
"  . . . + +   + +   + + + @ # $ % & * = - ; > , ' ) ! * ~ { ] * ",
"    + + .                 ^ ^ ^ ^ ^ ^ ^ / ( _ : < [ = } | 1 2 ~ ",
"3 4 4   4 3 4 4 4     ^ ^ 5 5 6 6 6 5 5 ^ ^ _ 7 8 9 0 a b ) = 2 ",
"c 3 4   4 3 3 3 3 4 ^ 5 6 6 d d d d d 6 6 5 ^ e f g h i ( 2 j ~ ",
"3 3 4     4 4 4 4 ^ 5 6 d d d k k k d d d 6 5 ^ l g _ m n o | = ",
"4 4   @ +   +   ^ 5 6 d d d k k k k k d d d 6 5 ^ p < q r = s t ",
"u   + # @ @ @ ^ 5 6 d d d k k k k k k k d d d 6 5 ^ 9 ( v } * { ",
"  + # w w x @ ^ 6 6 d d d k k k k k k k d d d 6 6 ^ n y z j ! * ",
"+ A A w w w ^ 5 6 d d d d d k k k k k d d d d d 6 5 ^ B ~ j & ! ",
"@ # w w w w ^ 5 6 ^ ^ 5 6 6 d d d d d 6 6 5 ^ ^ 6 5 ^ < 1 ~ o C ",
"@ w D E D w ^ 5 ^ 5 d ^ ^ 5 5 5 5 5 5 5 ^ ^ d 5 ^ 5 ^ < [ C F G ",
"x w H H H ^ 6 ^ 5 6 6 d d k k k k k k k d d 6 6 5 ^ 6 ^ I 2 J { ",
"w H K K H ^ 6 ^ 5 5 L 5 6 6 d d d d d 6 6 5 L 5 5 ^ 6 ^ M = C { ",
"D H K H H ^ 5 ^ 5 d 5 L L L L L L L L L L L 5 d 5 ^ 5 ^ * N 1 { ",
"H O P P H ^ ^ ^ 5 6 d 5 L L L L L L L L L 5 d 6 5 ^ ^ ^ Q R S T ",
"U V W X U U ^ ^ ^ 5 6 d d k k k k k k k d d 6 5 ^ ^ ^ Y Z `  ...",
"+.@.#.$.%.%.^ 5 5 ^ ^ 5 6 6 d d d d d 6 6 5 ^ ^ 5 5 ^ &.*.=.-.;.",
">.,.'.).!.~.T ^ 5 6 ^ {.].^.^.^.^.^.^.^.].{.^ 6 5 ^ /.(._.:.(.<.",
"[.o }.* |.|.^ 5 ^ ^ ^ 1.2.{.].].].].].{.2.1.^ ^ ^ 5 ^ 3.3.4.5.6.",
"1 ' | ! 7.^ 6 d k k 6 5 1.1.1.1.1.1.1.1.1.5 6 k k d 6 ^ 4.4.4.8.",
"9.~ t 0.a.^ 5 d d k 5 ^ 5 6 d 6 6 6 d 6 5 ^ 5 k d d 5 ^ 4.4.b.:.",
"| ~ c.>.d.e.^ 5 5 ^ ^ 6 d k k d d d k k d 6 ^ ^ 5 5 ^ f.4.4.g._.",
"N C h.i.j.^ 6 k d 6 ^ 6 d d 6 5 5 5 6 d d 6 ^ 6 d k 6 ^ k.k._.l.",
"1 ] m.i.Q ^ d d 6 5 ^ ^ ^ 5 5 6 d 6 5 5 ^ ^ ^ 5 6 d d ^ n.o.p.q.",
"J r.h.Q s.t.u.u.5 ^ ^ 5 5 ^ ^ 5 5 5 ^ ^ 5 5 ^ ^ 5 u.u.t.v.v.q.w.",
"x.y.z.A.B.t.C.C.^ ^ 5 6 k 6 5 k k k 5 6 k 6 5 ^ ^ C.C.t.D.E.F.v.",
"G G.h.H.i.i.t.t.I.^ 5 d k ^ 6 d k d 6 ^ k d 5 ^ H t.t.H J.K.L.<.",
"* M.h.h.z.s.Q N.N.O.^ d ^ 5 ^ 6 d 6 ^ 5 ^ d ^ E D D D H H K q.<.",
"C { P.m.j.s.B.Q.R.N.S.^ 5 k 6 ^ ^ ^ 6 k 5 ^ D w w w D H K T.F.q.",
"2 U.h.a.V.s.s.V.Q W.X.t.C.C.Y.t.Z.t.Y.C.C.t.w D `.`.D H P  +.+++",
"[ U.y.@+@+@+V.j.j.#+$+t.u.u.C.t.%+t.C.u.u.t.w w D H H H K &+&+F.",
"*+2 ! 0.m.P.P.h.h.Q N.I.t.t.t.=+%+x t.t.t.A w w D H H K T.-+-+v."};
